<svg xmlns="http://www.w3.org/2000/svg" xmlns:xlink="http://www.w3.org/1999/xlink" width="276" height="36" version="1.1" style=""><rect id="backgroundrect" width="100%" height="100%" x="0" y="0" fill="none" stroke="none"/>
    <!-- Generator: Sketch 55.2 (78181) - https://sketchapp.com -->
    <title>Logo</title>
    <desc>Created with Sketch.</desc>
    
<g class="currentLayer" style=""><title>Layer 1</title><g id="Page-1" stroke="none" stroke-width="1" fill="#000000" fill-rule="evenodd" class="selected" fill-opacity="1">
        <g id="Home" fill="#000000" fill-rule="nonzero" fill-opacity="1">
            <g id="Logo" fill="#000000" fill-opacity="1">
                <g id="noun_Running_1473810" fill="#000000" fill-opacity="1">
                    <g id="Group" fill="#000000" fill-opacity="1">
                        <path d="M242.53140202421875,30.9272727 C242.53140202421875,30.4363636 242.20166222421875,30.109090899999998 241.70705242421874,30.109090899999998 L227.36336873421874,30.109090899999998 C226.86875895421875,30.109090899999998 226.53901909421876,30.4363636 226.53901909421876,30.9272727 C226.53901909421876,31.4181818 226.86875895421875,31.7454545 227.36336873421874,31.7454545 L241.70705242421874,31.7454545 C242.20166222421875,31.7454545 242.53140202421875,31.3363636 242.53140202421875,30.9272727 z" id="Path" fill="#000000" fill-opacity="1"/>
                        <path d="M230.66076727421876,34.2 L229.01206800421875,34.2 C228.51745822421876,34.2 228.18771836421874,34.5272727 228.18771836421874,35.0181818 C228.18771836421874,35.5090909 228.51745822421876,35.8363636 229.01206800421875,35.8363636 L230.66076727421876,35.8363636 C231.15537705421875,35.8363636 231.48511691421874,35.5090909 231.48511691421874,35.0181818 C231.48511691421874,34.5272727 231.15537705421875,34.2 230.66076727421876,34.2 z" id="Path" fill="#000000" fill-opacity="1"/>
                        <path d="M234.53521056421874,26.8363636 C234.53521056421874,26.3454545 234.20547070421875,26.0181818 233.71086092421876,26.0181818 L225.71466946021874,26.0181818 C225.22005967821875,26.0181818 224.89031982421875,26.3454545 224.89031982421875,26.8363636 C224.89031982421875,27.327272699999998 225.22005967821875,27.6545455 225.71466946021874,27.6545455 L233.71086092421876,27.6545455 C234.20547070421875,27.6545455 234.53521056421874,27.2454545 234.53521056421874,26.8363636 z" id="Path" fill="#000000" fill-opacity="1"/>
                        <path d="M275.5053874242187,28.2272727 C275.25808252421876,27.7363636 274.76347282421875,27.327272699999998 274.2688630242187,27.0818182 L268.0038058242187,24.7090909 L268.0038058242187,24.7090909 L268.0038058242187,24.7090909 L265.44832192421876,23.8090909 C264.70640722421876,23.4818182 264.04692752421875,22.9909091 263.63475272421874,22.3363636 L261.49144362421873,18.8181818 C261.90361842421873,18.7363636 262.15092332421875,18.4090909 262.15092332421875,18 C262.15092332421875,17.509090900000004 261.8211835242188,17.181818199999995 261.32657372421875,17.181818199999995 L260.50222412421874,17.181818199999995 L259.5130045242188,15.545454499999998 C259.9251793242188,15.463636399999999 260.17248422421875,15.136363599999996 260.17248422421875,14.7272727 C260.17248422421875,14.236363600000004 259.8427444242187,13.909090900000002 259.34813462421874,13.909090900000002 L258.5237849242187,13.909090900000002 L257.6994353242187,12.600000000000001 C258.02917522421876,12.5181818 258.27648002421876,12.190909099999999 258.27648002421876,11.863636400000004 C258.27648002421876,11.372727300000001 257.94674022421873,11.045454499999998 257.45213042421875,11.045454499999998 L256.71021572421876,11.045454499999998 L255.63856122421876,9.327272730000004 C255.63856122421876,9.327272730000004 255.63856122421876,9.245454549999998 255.55612632421875,9.245454549999998 C254.56690672421874,8.100000000000001 253.24794732421876,7.52727273 251.84655292421874,7.690909089999998 C250.61002842421874,7.854545450000003 249.62080892421875,8.590909089999997 249.20863412421875,9.490909090000002 C249.12619912421874,9.73636364 249.12619912421874,9.981818179999998 249.29106902421876,10.2272727 L256.13317102421877,21.8454545 C256.21560602421874,22.0090909 256.3804759242188,22.1727273 256.54534582421877,22.1727273 L264.9537121242188,25.3636364 L265.03614712421876,25.3636364 L267.50919602421874,26.2636364 L267.50919602421874,26.2636364 L267.50919602421874,26.2636364 L267.50919602421874,26.2636364 L267.50919602421874,26.2636364 L267.50919602421874,26.2636364 L273.69181822421876,28.6363636 C273.8566882242187,28.7181818 274.02155812421876,28.8 274.10399312421873,29.045454499999998 C274.43373292421876,29.7 274.43373292421876,30.3545455 274.02155812421876,31.0090909 L260.58465902421875,31.0090909 C259.76030942421875,31.0090909 258.93595982421874,30.7636364 258.27648002421876,30.2727273 L235.27712522421876,13.336363599999999 C235.27712522421876,13.336363599999999 235.60686512421876,13.172727299999998 236.01903992421876,12.600000000000001 C236.43121472421876,12.027272699999997 236.59608462421875,11.2909091 236.59608462421875,10.554545500000003 L235.85417002421875,3.6818181800000005 L236.84338952421876,2.1272727300000014 C237.09069442421875,1.7999999999999972 237.58530422421876,1.718181819999998 237.91504402421876,1.9636363600000024 C238.16234892421875,2.2090909100000005 239.15156852421876,3.02727273 241.54218242421877,6.872727269999999 C242.77870692421874,8.672727269999996 244.75714602421874,9.981818179999998 246.98289002421876,10.309090900000001 C247.39506492421876,10.390909100000002 247.88967462421874,10.0636364 247.97210962421875,9.65454545 C248.05454462421875,9.245454549999998 247.72480472421876,8.754545450000002 247.31262992421875,8.672727269999996 C245.58149572421874,8.34545455 243.93279642421874,7.363636360000001 242.94357682421875,5.890909090000001 C240.05835312421874,1.47272727 239.23400352421874,0.8181818179999995 238.90426362421874,0.5727272729999983 C237.83260912421875,-0.1636363639999985 236.34877972421876,0.08181818180000278 235.52443012421875,1.1454545499999966 L230.49589734421875,9.081818179999999 C230.16615749421874,9.572727270000001 230.08372253421874,10.1454545 230.16615749421874,10.718181799999996 C229.67154771421875,10.881818199999998 229.17693793421876,11.127272699999999 228.92963304421875,11.618181800000002 L227.61067362421875,13.663636400000001 C226.86875895421875,14.7272727 227.19849880421876,16.200000000000003 228.27015333421875,16.9363636 C229.01206800421875,17.509090900000004 230.57833231421876,18.4909091 232.88651129421876,19.9636364 C233.05138121421874,20.045454499999998 233.21625114421875,20.1272727 233.29868611421875,20.1272727 C233.54599100421876,20.1272727 233.79329589421874,19.9636364 233.95816581421875,19.7181818 C234.20547070421875,19.3090909 234.12303574421875,18.8181818 233.71086092421876,18.5727273 C231.48511691421874,17.1 229.91885260421876,16.118181800000002 229.17693793421876,15.545454499999998 C228.84719807421874,15.299999999999997 228.76476311421874,14.890909100000002 229.01206800421875,14.4818182 L230.24859245421874,12.600000000000001 C230.49589734421875,12.2727273 230.99050712421874,12.190909099999999 231.32024698421876,12.4363636 L231.32024698421876,12.4363636 L257.20482552421873,31.5818182 C258.19404512421875,32.3181818 259.34813462421874,32.6454545 260.50222412421874,32.6454545 L271.87824902421875,32.6454545 C270.14711482421876,33.4636364 267.75650092421876,34.2 265.6956268242187,34.2 L265.6956268242187,34.2 L262.8104030242188,34.2 L260.41978912421877,34.2 L260.41978912421877,34.2 C259.01839472421875,34.2 257.61700032421874,33.7909091 256.46291092421876,33.0545455 C251.68168302421876,30.0272727 242.77870692421874,24.3818182 236.26634482421875,20.2090909 C235.85417002421875,19.9636364 235.35956022421874,20.045454499999998 235.11225532421875,20.454545500000002 C234.86495041421875,20.8636364 234.94738542421874,21.3545455 235.35956022421874,21.6 C241.70705242421874,25.6909091 250.36272352421875,31.1727273 255.22638642421876,34.281818200000004 L233.95816581421875,34.281818200000004 C233.46355603421875,34.281818200000004 233.13381618421874,34.6090909 233.13381618421874,35.1 C233.13381618421874,35.5909091 233.46355603421875,35.9181818 233.95816581421875,35.9181818 L260.41978912421877,35.9181818 L260.41978912421877,35.9181818 L262.8104030242188,35.9181818 L265.61319182421875,35.9181818 L265.61319182421875,35.9181818 C268.99302532421876,35.9181818 273.8566882242187,34.1181818 275.0932126242187,32.4 C276.16486712421874,30.9272727 276.2473021242188,29.5363636 275.5053874242187,28.2272727 zM257.28726052421877,20.8636364 L250.85733332421876,9.981818179999998 C251.10463822421875,9.73636364 251.51681302421875,9.490909090000002 252.01142282421876,9.409090910000003 C252.50603262421876,9.327272730000004 253.41281722421874,9.409090910000003 254.23716682421875,10.309090900000001 L254.73177662421875,11.127272699999999 L253.98986192421876,11.127272699999999 C253.49525222421875,11.127272699999999 253.16551232421875,11.454545500000002 253.16551232421875,11.945454499999997 C253.16551232421875,12.4363636 253.49525222421875,12.763636399999996 253.98986192421876,12.763636399999996 L255.72099622421877,12.763636399999996 L256.54534582421877,14.072727299999997 L255.88586612421875,14.072727299999997 C255.39125632421874,14.072727299999997 255.06151652421875,14.399999999999999 255.06151652421875,14.890909100000002 C255.06151652421875,15.381818199999998 255.39125632421874,15.7090909 255.88586612421875,15.7090909 L257.5345654242187,15.7090909 L258.5237849242187,17.263636399999996 L257.86430522421875,17.263636399999996 C257.36969552421874,17.263636399999996 257.03995562421875,17.590909100000005 257.03995562421875,18.0818182 C257.03995562421875,18.5727273 257.36969552421874,18.9 257.86430522421875,18.9 L259.5130045242188,18.9 L261.8211835242188,22.5 L257.28726052421877,20.8636364 zM231.89729172421875,9.981818179999998 L234.45277560421874,5.97272727 L234.94738542421874,10.718181799999996 C234.94738542421874,11.045454499999998 234.86495041421875,11.372727300000001 234.70008049421875,11.618181800000002 C234.53521056421874,11.863636400000004 234.20547070421875,12.5181818 233.46355603421875,11.945454499999997 C233.46355603421875,11.945454499999997 233.05138121421874,11.700000000000003 232.30946654421874,11.127272699999999 C231.81485676421875,10.718181799999996 231.73242180421875,10.309090900000001 231.89729172421875,9.981818179999998 z" id="Shape" fill="#000000" fill-opacity="1"/>
                    </g>
                </g>
                <path d="M8.481445309999998,27.4707031 L5.698242190000002,27.4707031 L5.698242190000002,35 L0.556640625,35 L0.556640625,13.671875 L8.950195309999998,13.671875 C11.4795048,13.671875 13.457024100000012,14.233392800000004 14.8828125,15.356445300000004 C16.308600899999988,16.479497800000004 17.02148439999999,18.066396 17.02148439999999,20.1171875 C17.02148439999999,21.6015699 16.7211944,22.8320264 16.12060550000001,23.8085938 C15.520016499999997,24.7851611 14.580084499999998,25.5761688 13.300781199999989,26.1816406 L17.75390619999999,34.7802734 L17.75390619999999,35 L12.246093800000011,35 L8.481445309999998,27.4707031 zM5.698242190000002,23.5009766 L8.950195309999998,23.5009766 C9.926762700000012,23.5009766 10.661618599999997,23.2446315 11.154785199999992,22.7319336 C11.647951699999993,22.2192357 11.894531199999989,21.5039108 11.894531199999989,20.5859375 C11.894531199999989,19.6679642 11.645510300000012,18.9477565 11.147460899999999,18.425293 C10.649411600000008,17.9028294 9.916997019999997,17.6416016 8.950195309999998,17.6416016 L5.698242190000002,17.6416016 L5.698242190000002,23.5009766 zM38.1884766,24.7753906 C38.1884766,26.8554792 37.80273819999999,28.6962811 37.03125,30.2978516 C36.25976180000001,31.8994221 35.163581300000004,33.1323199 33.7426758,33.996582 C32.3217702,34.8608442 30.7031341,35.2929688 28.88671880000001,35.2929688 C27.0703034,35.2929688 25.458991400000002,34.8754925 24.05273439999999,34.0405273 C22.646477300000015,33.2055622 21.550296900000006,32.0117265 20.764160199999992,30.4589844 C19.978023400000012,28.9062422 19.565429899999998,27.1240335 19.52636720000001,25.1123047 L19.52636720000001,23.9111328 C19.52636720000001,21.8212786 19.909664099999986,19.9780353 20.67626949999999,18.3813477 C21.442874899999993,16.784660000000002 22.541496800000004,15.551762199999999 23.97216800000001,14.682617199999996 C25.40283919999999,13.8134722 27.0312409,13.378906200000003 28.85742189999999,13.378906200000003 C30.664071500000006,13.378906200000003 32.275383500000004,13.808589499999997 33.69140620000002,14.667968799999997 C35.107428999999996,15.527348000000003 36.208492199999995,16.7504803 36.99462890000001,18.3374023 C37.780765599999995,19.9243243 38.1787109,21.7431538 38.1884766,23.7939453 L38.1884766,24.7753906 zM32.95898439999999,23.8818359 C32.95898439999999,21.7626847 32.604984,20.153814099999998 31.896972699999992,19.0551758 C31.18896129999999,17.956537499999996 30.175787799999995,17.4072266 28.85742189999999,17.4072266 C26.27928399999999,17.4072266 24.916992899999997,19.340801 24.77050779999999,23.2080078 L24.75585939999999,24.7753906 C24.75585939999999,26.8652448 25.10253560000001,28.4716741 25.7958984,29.5947266 C26.48926130000001,30.7177791 27.519524399999995,31.2792969 28.88671880000001,31.2792969 C30.185553400000003,31.2792969 31.186519900000008,30.7275446 31.8896484,29.6240234 C32.59277700000001,28.5205023 32.94921870000002,26.9336041 32.95898439999999,24.8632812 L32.95898439999999,23.8818359 zM58.09570310000001,27.7783203 C58.02734340000001,29.2627027 57.626956800000016,30.5737248 56.89453120000002,31.7114258 C56.162105699999984,32.8491268 55.13428400000001,33.7304656 53.81103519999999,34.3554688 C52.487786400000005,34.9804719 50.97657100000001,35.2929688 49.27734379999998,35.2929688 C46.4745954,35.2929688 44.26758619999998,34.3798919 42.65625,32.5537109 C41.04491380000002,30.7275299 40.23925779999999,28.1494307 40.23925779999999,24.8193359 L40.23925779999999,23.7646484 C40.23925779999999,21.6747942 40.603023699999994,19.8461992 41.33056640000001,18.2788086 C42.058109099999996,16.7114179 43.105461899999995,15.500492600000001 44.47265620000002,14.645996099999998 C45.839850600000005,13.791499600000002 47.421865999999994,13.364257800000004 49.21875,13.364257800000004 C51.806653600000004,13.364257800000004 53.8867109,14.045403300000004 55.45898439999999,15.4077148 C57.031257900000014,16.770026299999998 57.92480359999999,18.647449 58.1396484,21.0400391 L53.01269529999999,21.0400391 C52.9736326,19.7412044 52.646487500000006,18.8085966 52.03125,18.2421875 C51.416012499999994,17.6757784 50.478521900000004,17.3925781 49.21875,17.3925781 C47.93944669999999,17.3925781 47.0019561,17.871088999999998 46.40625,18.828125 C45.8105439,19.785161 45.498046999999985,21.3134661 45.46875,23.4130859 L45.46875,24.921875 C45.46875,27.197277 45.754391699999985,28.8232373 46.32568359999999,29.7998047 C46.896975499999996,30.7763721 47.88085240000001,31.2646484 49.27734379999998,31.2646484 C50.45899030000001,31.2646484 51.362301599999995,30.9863309 51.98730470000001,30.4296875 C52.612307799999996,29.8730441 52.94433570000001,28.9892639 52.9833984,27.7783203 L58.09570310000001,27.7783203 zM67.77832030000002,27.0605469 L65.66894530000002,29.375 L65.66894530000002,35 L60.52734379999998,35 L60.52734379999998,13.671875 L65.66894530000002,13.671875 L65.66894530000002,23.0761719 L67.45605469999998,20.3662109 L72.0556641,13.671875 L78.4130859,13.671875 L71.20605469999998,23.1054688 L78.4130859,35 L72.3193359,35 L67.77832030000002,27.0605469 zM92.9443359,25.9619141 L84.8583984,25.9619141 L84.8583984,31.0449219 L94.40917969999998,31.0449219 L94.40917969999998,35 L79.71679690000002,35 L79.71679690000002,13.671875 L94.4384766,13.671875 L94.4384766,17.6416016 L84.8583984,17.6416016 L84.8583984,22.1386719 L92.9443359,22.1386719 L92.9443359,25.9619141 zM113.54003899999998,17.6416016 L107.13867199999999,17.6416016 L107.13867199999999,35 L101.99707000000001,35 L101.99707000000001,17.6416016 L95.71289059999998,17.6416016 L95.71289059999998,13.671875 L113.54003899999998,13.671875 L113.54003899999998,17.6416016 zM126.474609,29.3310547 C126.474609,28.5790978 126.208499,27.9931662 125.67627,27.5732422 C125.14404,27.1533182 124.208991,26.7187522 122.871094,26.2695312 C121.533196,25.8203103 120.439457,25.3857443 119.589844,24.9658203 C116.82615800000002,23.6083917 115.44433600000002,21.7431759 115.44433600000002,19.3701172 C115.44433600000002,18.1884707 115.78857099999999,17.1460006 116.47705100000002,16.2426758 C117.16553099999999,15.339351 118.13964199999998,14.636233000000004 119.39941399999998,14.1333008 C120.659186,13.630368599999997 122.075187,13.378906200000003 123.647461,13.378906200000003 C125.180672,13.378906200000003 126.55517,13.652341 127.770996,14.199218799999997 C128.986822,14.7460965 129.931637,15.5248973 130.605469,16.535644500000004 C131.2793,17.546391799999995 131.616211,18.7011654 131.616211,20 L126.489258,20 C126.489258,19.130855 126.223147,18.4570336 125.690918,17.9785156 C125.158689,17.4999976 124.438481,17.260742199999996 123.530273,17.260742199999996 C122.6123,17.260742199999996 121.88720999999998,17.4633769 121.35498000000001,17.8686523 C120.82275099999998,18.2739278 120.55664100000001,18.7890594 120.55664100000001,19.4140625 C120.55664100000001,19.9609402 120.849606,20.4565407 121.43554699999999,20.9008789 C122.021487,21.3452171 123.05175,21.8041969 124.526367,22.277832 C126.000984,22.7514672 127.211909,23.261716 128.15918,23.8085938 C130.463879,25.1367254 131.616211,26.9677618 131.616211,29.3017578 C131.616211,31.1670015 130.913093,32.6318306 129.506836,33.6962891 C128.100579,34.7607475 126.171887,35.2929688 123.720703,35.2929688 C121.992179,35.2929688 120.42725300000001,34.9829133 119.025879,34.362793 C117.624505,33.7426727 116.569828,32.8930718 115.861816,31.8139648 C115.153805,30.7348579 114.79980499999999,29.4921945 114.79980499999999,28.0859375 L119.95605499999999,28.0859375 C119.95605499999999,29.2285213 120.251462,30.0707981 120.842285,30.612793 C121.433108,31.1547879 122.392571,31.4257812 123.720703,31.4257812 C124.570317,31.4257812 125.241697,31.2426776 125.734863,30.8764648 C126.22803,30.5102521 126.474609,29.9951205 126.474609,29.3310547 zM152.080078,35 L146.967773,35 L146.967773,26.09375 L139.394531,26.09375 L139.394531,35 L134.25293,35 L134.25293,13.671875 L139.394531,13.671875 L139.394531,22.1386719 L146.967773,22.1386719 L146.967773,13.671875 L152.080078,13.671875 L152.080078,35 zM173.393555,24.7753906 C173.393555,26.8554792 173.007816,28.6962811 172.236328,30.2978516 C171.46484,31.8994221 170.368659,33.1323199 168.947754,33.996582 C167.526848,34.8608442 165.908212,35.2929688 164.091797,35.2929688 C162.275382,35.2929688 160.66407,34.8754925 159.257812,34.0405273 C157.851555,33.2055622 156.755375,32.0117265 155.969238,30.4589844 C155.183102,28.9062422 154.770508,27.1240335 154.731445,25.1123047 L154.731445,23.9111328 C154.731445,21.8212786 155.114742,19.9780353 155.881348,18.3813477 C156.647953,16.784660000000002 157.746575,15.551762199999999 159.177246,14.682617199999996 C160.607917,13.8134722 162.236319,13.378906200000003 164.0625,13.378906200000003 C165.86915,13.378906200000003 167.480462,13.808589499999997 168.896484,14.667968799999997 C170.312507,15.527348000000003 171.41357,16.7504803 172.199707,18.3374023 C172.985844,19.9243243 173.383789,21.7431538 173.393555,23.7939453 L173.393555,24.7753906 zM168.164062,23.8818359 C168.164062,21.7626847 167.810062,20.153814099999998 167.102051,19.0551758 C166.394039,17.956537499999996 165.380866,17.4072266 164.0625,17.4072266 C161.484362,17.4072266 160.122071,19.340801 159.975586,23.2080078 L159.960938,24.7753906 C159.960938,26.8652448 160.307614,28.4716741 161.000977,29.5947266 C161.694339,30.7177791 162.724603,31.2792969 164.091797,31.2792969 C165.390631,31.2792969 166.391598,30.7275446 167.094727,29.6240234 C167.797855,28.5205023 168.154297,26.9336041 168.164062,24.8632812 L168.164062,23.8818359 zM189.272461,25.9619141 L181.186523,25.9619141 L181.186523,31.0449219 L190.737305,31.0449219 L190.737305,35 L176.044922,35 L176.044922,13.671875 L190.766602,13.671875 L190.766602,17.6416016 L181.186523,17.6416016 L181.186523,22.1386719 L189.272461,22.1386719 L189.272461,25.9619141 zM203.833008,29.3310547 C203.833008,28.5790978 203.566897,27.9931662 203.034668,27.5732422 C202.502439,27.1533182 201.56739,26.7187522 200.229492,26.2695312 C198.891595,25.8203103 197.797856,25.3857443 196.948242,24.9658203 C194.184556,23.6083917 192.802734,21.7431759 192.802734,19.3701172 C192.802734,18.1884707 193.146969,17.1460006 193.835449,16.2426758 C194.523929,15.339351 195.498041,14.636233000000004 196.757812,14.1333008 C198.017584,13.630368599999997 199.433586,13.378906200000003 201.005859,13.378906200000003 C202.53907,13.378906200000003 203.913568,13.652341 205.129395,14.199218799999997 C206.345221,14.7460965 207.290036,15.5248973 207.963867,16.535644500000004 C208.637699,17.546391799999995 208.974609,18.7011654 208.974609,20 L203.847656,20 C203.847656,19.130855 203.581546,18.4570336 203.049316,17.9785156 C202.517087,17.4999976 201.79688,17.260742199999996 200.888672,17.260742199999996 C199.970699,17.260742199999996 199.245608,17.4633769 198.713379,17.8686523 C198.18115,18.2739278 197.915039,18.7890594 197.915039,19.4140625 C197.915039,19.9609402 198.208005,20.4565407 198.793945,20.9008789 C199.379886,21.3452171 200.410149,21.8041969 201.884766,22.277832 C203.359382,22.7514672 204.570308,23.261716 205.517578,23.8085938 C207.822277,25.1367254 208.974609,26.9677618 208.974609,29.3017578 C208.974609,31.1670015 208.271491,32.6318306 206.865234,33.6962891 C205.458977,34.7607475 203.530286,35.2929688 201.079102,35.2929688 C199.350577,35.2929688 197.785652,34.9829133 196.384277,34.362793 C194.982903,33.7426727 193.928226,32.8930718 193.220215,31.8139648 C192.512203,30.7348579 192.158203,29.4921945 192.158203,28.0859375 L197.314453,28.0859375 C197.314453,29.2285213 197.60986,30.0707981 198.200684,30.612793 C198.791507,31.1547879 199.75097,31.4257812 201.079102,31.4257812 C201.928715,31.4257812 202.600095,31.2426776 203.093262,30.8764648 C203.586428,30.5102521 203.833008,29.9951205 203.833008,29.3310547 z" id="ROCKETSHOES" fill="#000000" fill-opacity="1"/>
            </g>
        </g>
    </g></g></svg>